HIERARCHY
ROOT Hips
{
  OFFSET -187.679 86.5976 -156.378
  CHANNELS 6 Xposition Yposition Zposition Zrotation Xrotation Yrotation
  JOINT LeftUpLeg
  {
    OFFSET 8.64259 1.95398 -2.38835
    CHANNELS 3 Zrotation Xrotation Yrotation
    JOINT LeftLeg
    {
      OFFSET 43.7702 0 0
      CHANNELS 3 Zrotation Xrotation Yrotation
      JOINT LeftFoot
      {
        OFFSET 40.6238 0 0
        CHANNELS 3 Zrotation Xrotation Yrotation
        JOINT LeftToeBase
        {
          OFFSET 12.7242 0 0
          CHANNELS 3 Zrotation Xrotation Yrotation
          End Site
          {
            OFFSET 0 0 0
          }
        }
      }
    }
  }
  JOINT RightUpLeg
  {
    OFFSET -8.2249 1.95398 -2.59336
    CHANNELS 3 Zrotation Xrotation Yrotation
    JOINT RightLeg
    {
      OFFSET 43.5653 0 0
      CHANNELS 3 Zrotation Xrotation Yrotation
      JOINT RightFoot
      {
        OFFSET 40.6238 0 0
        CHANNELS 3 Zrotation Xrotation Yrotation
        JOINT RightToeBase
        {
          OFFSET 12.7242 0 0
          CHANNELS 3 Zrotation Xrotation Yrotation
          End Site
          {
            OFFSET 0 0 0
          }
        }
      }
    }
  }
  JOINT Spine
  {
    OFFSET 0.165834 0.87714 6.61349
    CHANNELS 3 Zrotation Xrotation Yrotation
    JOINT Spine1
    {
      OFFSET 7.38963 1.71661e-005 0
      CHANNELS 3 Zrotation Xrotation Yrotation
      JOINT Spine2
      {
        OFFSET 11.9445 1.14441e-005 0
        CHANNELS 3 Zrotation Xrotation Yrotation
        JOINT Spine3
        {
          OFFSET 14.7254 4.19617e-005 0
          CHANNELS 3 Zrotation Xrotation Yrotation
          JOINT Spine4
          {
            OFFSET 10.9679 0 0
            CHANNELS 3 Zrotation Xrotation Yrotation
            JOINT RightShoulder
            {
              OFFSET 2.46616 -1.6653 3.69651
              CHANNELS 3 Zrotation Xrotation Yrotation
              JOINT RightArm
              {
                OFFSET 13.0012 0 0
                CHANNELS 3 Zrotation Xrotation Yrotation
                JOINT RightForeArm
                {
                  OFFSET 28.7848 1.52588e-005 0
                  CHANNELS 3 Zrotation Xrotation Yrotation
                  JOINT RightHand
                  {
                    OFFSET 26.5688 1.52588e-005 0
                    CHANNELS 3 Zrotation Xrotation Yrotation
                    End Site
                    {
                      OFFSET 0 0 0
                    }
                  }
                }
              }
            }
            JOINT LeftShoulder
            {
              OFFSET 2.38034 -1.29275 -3.7523
              CHANNELS 3 Zrotation Xrotation Yrotation
              JOINT LeftArm
              {
                OFFSET 16.3182 6.10352e-005 0
                CHANNELS 3 Zrotation Xrotation Yrotation
                JOINT LeftForeArm
                {
                  OFFSET 27.0901 0 0
                  CHANNELS 3 Zrotation Xrotation Yrotation
                  JOINT LeftHand
                  {
                    OFFSET 24.5451 1.52588e-005 0
                    CHANNELS 3 Zrotation Xrotation Yrotation
                    End Site
                    {
                      OFFSET 0 0 0
                    }
                  }
                }
              }
            }
            JOINT Neck
            {
              OFFSET 5.0226 -0.0266342 0
              CHANNELS 3 Zrotation Xrotation Yrotation
              JOINT Head
              {
                OFFSET 6.69363 2.86102e-005 0
                CHANNELS 3 Zrotation Xrotation Yrotation
                End Site
                {
                  OFFSET 0 0 0
                }
              }
            }
          }
        }
      }
    }
  }
}
MOTION
Frames:	10
Frame Time:	0.0416667
44.9568 84.0264 13.1805 89.6177 -27.6398 99.4476 -160.281 30.6877 77.3058 -64.4008 15.0235 -12.0354 82.7213 12.1561 3.75339 2.20555 0.282152 -19.0167 179.478 17.6267 78.4849 -81.0872 -11.1803 -9.04734 70.735 -4.24227 0.801214 26.9468 -1.83014 5.10699 0.192252 8.62529 -92.2419 9.59108 -0.628195 -4.39635 -2.08703 -0.820886 -4.36454 -24.5634 0.720788 -4.38214 -4.55072 0.720807 -4.38214 90.1309 -46.0082 -101.38 2.96862 -26.4997 -38.1563 -44.5462 7.68048 -80.7794 -3.65168 -0.126971 -1.37868 -87.9254 -42.2264 80.5266 -35.3549 24.7978 25.6973 33.054 -8.62115 -69.8658 8.06563 0.543345 2.70942 17.0673 28.7805 8.36147 4.10149 25.962 6.58473 
48.3448 84.3487 13.6929 88.7792 -21.7636 96.7946 -162.28 24.9776 74.9962 -59.879 20.3888 -11.8526 82.9793 14.9177 9.06601 1.20279 2.66586 -23.4125 -174.117 20.179 78.1546 -88.6305 4.11288 -9.49653 73.1561 -5.08473 -2.47835 18.8667 -3.59022 5.2299 -0.14386 8.69186 -91.8616 9.45837 -1.12448 -3.60556 -2.21694 -1.28201 -3.55268 -24.7121 0.0102534 -3.7766 -4.69944 0.0102486 -3.77662 88.4665 -48.2002 -103.436 8.20891 -18.4045 -25.6079 -41.7817 4.95337 -79.6492 -4.70866 -0.205783 0.147261 -89.0188 -44.0909 79.1651 -26.0051 21.8685 14.0497 31.5454 -6.67017 -69.6397 12.3116 0.895131 3.38975 18.9724 29.2409 8.97698 5.68262 25.9769 4.39939 
51.4636 84.3898 13.9838 87.6829 -15.1989 95.4172 -164.629 21.3209 74.4682 -59.5102 20.7166 -10.4503 86.2938 14.4151 3.59509 -5.00939 2.50662 -24.9721 -168.265 24.3472 78.5819 -96.4734 13.8342 -9.02259 76.9088 -6.42397 -4.07579 14.6171 -4.39915 4.97238 -0.552831 8.70669 -91.6892 9.42314 -1.86243 -3.20891 -2.25022 -2.0018 -3.12394 -24.7565 -0.812635 -3.61975 -4.74381 -0.81264 -3.61976 88.2127 -49.1263 -103.578 11.8933 -11.0367 -13.9238 -43.4777 1.71042 -79.0644 -3.18969 -0.137748 0.0473158 -89.6846 -45.5049 78.4338 -17.8715 16.5501 5.11921 31.398 -6.94083 -74.8125 12.6505 0.656964 1.4483 19.9496 29.6281 10.0775 6.91839 25.8374 2.60797 
54.3958 84.196 14.2221 86.1427 -8.28905 94.8065 -166.414 18.2322 74.4422 -58.2947 25.7951 -9.34219 87.1164 16.0055 5.49906 -7.54751 3.96064 -27.7506 -163.839 30.5703 77.9374 -102.963 17.0814 -8.14694 79.6999 -7.29696 -4.36661 16.1209 -3.65848 3.98861 -0.921607 8.71059 -91.6481 9.40821 -2.57867 -3.07426 -2.26353 -2.71144 -2.95788 -24.7784 -1.53626 -3.70642 -4.76572 -1.53626 -3.70642 89.268 -49.1946 -101.937 14.4803 -4.46843 -3.81193 -43.2185 -0.577042 -78.2543 -3.15283 -0.114739 -0.903931 -89.9583 -44.9556 77.874 -12.091 9.91413 -3.28979 29.5354 -8.15743 -82.3497 12.4744 0.684891 1.73284 21.9897 29.8274 9.88616 7.72407 25.8375 2.22031 
57.6842 83.8451 14.5626 85.3259 -1.01801 95.2031 -168.206 14.3438 75.3869 -58.2651 28.6671 -7.15616 89.6289 16.909 4.06335 -10.9806 4.10779 -28.6373 -161.479 37.2858 76.9504 -106.539 15.3689 -7.49197 80.8772 -7.68383 -5.326 18.045 -3.62635 4.89996 -1.35049 8.88641 -91.6533 9.04672 -3.43197 -3.03511 -2.6229 -3.56216 -2.88114 -25.1493 -2.36191 -3.92549 -5.13671 -2.36189 -3.92548 89.7618 -49.0584 -101.209 16.0683 1.73069 5.82045 -42.9291 -2.68226 -77.4206 -4.22397 -0.183356 -0.0458048 -90.3546 -43.4807 76.8797 -6.205 0.633536 -11.8128 25.8476 -8.52896 -90.2191 12.7234 0.794602 2.47276 25.6 29.5056 8.16369 7.66455 25.7431 2.95175 
61.322 83.5651 14.7802 85.0348 5.56285 95.5604 -170.351 10.8541 76.838 -59.6742 31.4139 -3.82631 90.4487 16.8633 2.82817 -12.6487 4.38217 -29.2996 -160.924 44.1999 76.3304 -106.016 16.0175 -7.23389 84.0631 -8.08399 -2.52419 18.1287 -3.23758 3.9637 -1.75503 8.98669 -91.6859 8.83517 -4.25089 -3.05194 -2.83194 -4.381 -2.86179 -25.3724 -3.13793 -4.18787 -5.3597 -3.13793 -4.18786 89.9796 -48.7012 -100.959 17.2356 7.76305 17.1463 -41.6111 -3.2617 -78.2816 -3.71047 -0.18323 0.908358 -90.5304 -41.18 75.9899 -1.61168 -9.69147 -18.4471 21.4404 -7.84931 -98.073 11.22 0.631719 1.8361 27.4335 28.5407 5.93763 7.68124 25.4493 3.8752 
65.4355 83.3202 14.5761 84.098 10.7053 96.8714 -172.321 6.62061 78.5215 -58.6511 33.644 -0.402182 91.2533 17.5259 3.10941 -9.07537 4.86739 -29.357 -161.559 51.4048 76.0437 -101.154 14.6409 -7.28517 86.3432 -8.22192 -0.378703 22.2203 -2.63305 4.57833 -2.07146 9.02079 -91.8164 8.75261 -4.93912 -3.26919 -2.91252 -5.07812 -3.04842 -25.4624 -3.72923 -4.60205 -5.44973 -3.72923 -4.60205 90.412 -48.3495 -100.37 17.4041 11.1813 26.6906 -39.9243 -2.96762 -79.7215 -4.32269 -0.177954 -0.226287 -89.7466 -38.7757 76.651 0.772504 -20.3269 -25.0168 19.8044 -6.32393 -104.428 13.0125 0.697675 1.61499 28.9996 27.9406 3.78753 6.84116 25.5384 4.54413 
70.3755 83.7305 13.7051 83.1684 13.6127 99.0203 -173.154 1.87976 80.772 -55.6314 41.7832 2.7709 84.5739 17.3025 10.3579 0.45334 4.73426 -27.2878 -164.415 56.7556 78.6293 -91.848 12.8377 -7.10972 86.3517 -7.70479 2.33332 25.2576 -1.45305 2.82708 -2.26491 9.09487 -92.0953 8.58007 -5.44628 -3.79817 -3.08431 -5.60805 -3.55455 -25.6316 -4.05453 -5.25848 -5.61891 -4.05452 -5.25848 91.351 -47.6237 -99.0619 17.0157 11.9873 33.4574 -38.1216 -1.71992 -82.3424 -5.29983 -0.261204 0.812118 -88.5384 -36.2926 78.0748 -1.71862 -31.096 -32.2493 16.6113 -3.08308 -108.404 15.5291 1.21354 4.08339 30.2551 28.1194 4.14184 6.56963 25.435 3.68065 
75.9049 84.4042 11.9521 82.2565 14.1354 100.22 -175.111 -3.26487 80.1916 -50.514 41.5794 6.20283 78.2948 14.4904 13.3128 7.61235 7.34661 -30.6156 -167.067 59.3044 81.2949 -80.5977 6.54086 -6.73089 84.134 -6.92928 5.32468 28.6241 -0.729673 2.48262 -2.30772 9.05228 -92.2903 8.65122 -5.61911 -4.16883 -3.01347 -5.797 -3.91729 -25.5535 -4.10847 -5.66333 -5.54088 -4.10848 -5.66333 91.3158 -47.3305 -99.1817 15.5974 10.4901 38.446 -39.7838 -0.616922 -85.5612 -4.07863 -0.149763 -0.798727 -87.6435 -33.3457 78.9196 -8.64008 -37.462 -36.4295 14.374 -0.693062 -112.502 15.3244 1.31323 4.76805 30.4841 28.3942 4.78841 6.29843 25.4224 3.33563 
82.0208 85.1403 9.69699 81.7172 14.0349 101.583 -177.171 -7.51623 79.821 -44.7864 37.059 9.11878 70.6906 6.98791 6.22235 15.8736 7.94766 -30.5136 -170.846 58.0149 85.5622 -69.6701 -5.14452 -6.19288 83.6656 -7.59534 3.67496 29.9936 -0.349631 1.94539 -2.26244 8.95313 -92.5197 8.8339 -5.6337 -4.61045 -2.83213 -5.83095 -4.35797 -25.3575 -3.99036 -6.08796 -5.34489 -3.99036 -6.08797 91.2166 -46.9905 -99.4167 14.7958 6.34922 40.0564 -39.9174 1.08153 -87.2783 -3.37626 -0.096169 -2.02526 -87.1302 -33.3734 79.8668 -11.488 -36.7098 -37.5923 13.3141 -0.876292 -116.143 16.7035 1.56458 5.61775 30.2445 28.5299 5.62756 5.87124 25.2232 2.75266 
